#!OML:ASF F:\VICON\USERDATA\INSTALL\rory3\rory3.ASF
:FULLY-SPECIFIED
:DEGREES
1464
root -1.60727 17.8254 -3.37053 0.733156 -11.035 5.64421
lowerback 17.6839 1.99832 -5.88818
upperback 2.39443 1.26617 -2.6885
thorax -7.402 0.728609 0.149543
lowerneck -16.2317 0.956556 -4.58688
upperneck 1.58548 1.7711 6.19298
head 2.96368 1.14073 2.76559
rclavicle 1.45113e-014 -1.11319e-014
rhumerus -23.0044 -12.8923 -48.4242
rradius 84.2615
rwrist -34.9378
rhand -23.9899 7.40648
rfingers 7.12502
rthumb 2.48714 -22.5588
lclavicle 1.45113e-014 -1.11319e-014
lhumerus -34.8877 8.83285 54.5854
lradius 85.2565
lwrist 13.9435
lhand -37.3778 9.85763
lfingers 7.12502
lthumb -10.4391 39.5785
rfemur -28.1645 6.27139 6.31477
rtibia 49.1812
rfoot -20.6931 -2.93143
rtoes -7.06805
lfemur -19.5186 18.3193 -17.7138
ltibia 45.3004
lfoot -19.8909 14.8812
ltoes -12.9759
1465
root -1.57264 17.7683 -3.42446 0.893491 -11.0607 5.69011
lowerback 18.2196 2.04244 -5.98897
upperback 2.46454 1.25791 -2.72308
thorax -7.61932 0.728732 0.157165
lowerneck -16.3022 0.923298 -4.59273
upperneck 1.3772 1.73591 6.23509
head 2.91282 1.12553 2.77621
rclavicle -2.03754e-014 2.50469e-014
rhumerus -22.7079 -12.7228 -48.4446
rradius 84.4544
rwrist -34.8423
rhand -24.2697 7.22852
rfingers 7.12502
rthumb 2.21693 -22.7397
lclavicle -2.03754e-014 2.50469e-014
lhumerus -34.1766 8.70047 54.2027
lradius 85.344
lwrist 14.0057
lhand -37.2276 9.95649
lfingers 7.12502
lthumb -10.2942 39.6846
rfemur -29.1756 5.58404 6.24293
rtibia 50.1196
rfoot -20.7871 -3.06654
rtoes -7.0685
lfemur -20.3502 18.7975 -17.8198
ltibia 46.1487
lfoot -20.1229 14.1622
ltoes -13.0381
1466
root -1.53865 17.7105 -3.4748 1.11108 -11.0515 5.66093
lowerback 18.6326 2.07133 -5.97216
upperback 2.58272 1.26482 -2.76651
thorax -7.71443 0.730042 0.0900566
lowerneck -16.559 0.879606 -4.61794
upperneck 1.29446 1.6865 6.37559
head 2.92904 1.11125 2.82314
rclavicle -3.27995e-015 5.725e-014
rhumerus -22.4298 -12.7241 -48.4416
rradius 84.6442
rwrist -34.7602
rhand -23.9018 7.1649
rfingers 7.12502
rthumb 2.57222 -22.7993
lclavicle -3.27995e-015 5.725e-014
lhumerus -33.2579 8.6045 53.8305
lradius 85.3627
lwrist 14.0643
lhand -36.9875 10.0648
lfingers 7.12502
lthumb -10.0626 39.8042
rfemur -30.1745 4.9721 6.22903
rtibia 51.0396
rfoot -20.9194 -3.24045
rtoes -7.6652
lfemur -21.2714 19.2526 -17.8797
ltibia 47.0477
lfoot -20.2838 13.5164
ltoes -13.3935
1467
root -1.5048 17.6544 -3.5166 1.27021 -10.9635 5.75011
lowerback 18.9956 2.06945 -6.00064
upperback 2.76019 1.22486 -2.86582
thorax -7.71437 0.706823 0.00291591
lowerneck -16.8474 0.839877 -4.62985
upperneck 1.17566 1.64313 6.50346
head 2.93887 1.09991 2.86452
rclavicle -1.67973e-014 3.02153e-014
rhumerus -22.0973 -12.7909 -48.4981
rradius 84.7692
rwrist -34.54
rhand -23.6445 7.34732
rfingers 7.12502
rthumb 2.82066 -22.6138
lclavicle -1.67973e-014 3.02153e-014
lhumerus -32.263 8.57345 53.4157
lradius 85.3259
lwrist 14.0159
lhand -36.6761 10.177
lfingers 7.12502
lthumb -9.76217 39.9307
rfemur -30.9851 4.38501 6.03368
rtibia 51.9319
rfoot -21.1742 -3.14381
rtoes -7.9865
lfemur -22.1598 19.7385 -18.0938
ltibia 48.0001
lfoot -20.3748 12.9164
ltoes -13.8818
1468
root -1.47288 17.5965 -3.56383 1.4506 -10.8337 5.77232
lowerback 19.5545 2.05521 -6.01764
upperback 2.82664 1.151 -2.92441
thorax -7.9403 0.673123 -0.046553
lowerneck -16.9718 0.818043 -4.59205
upperneck 1.01419 1.61389 6.56413
head 2.9105 1.08988 2.87543
rclavicle -2.00773e-014 3.49861e-014
rhumerus -21.7887 -12.7853 -48.5218
rradius 84.8515
rwrist -34.3935
rhand -23.451 7.36767
rfingers 7.12502
rthumb 3.00757 -22.5909
lclavicle -2.00773e-014 3.49861e-014
lhumerus -31.4326 8.50736 52.9746
lradius 85.2815
lwrist 14.0497
lhand -36.327 10.0015
lfingers 7.12502
lthumb -9.42533 39.7707
rfemur -31.8132 3.88951 5.88413
rtibia 52.7788
rfoot -21.493 -2.9202
rtoes -8.23173
lfemur -23.1456 20.2146 -18.2731
ltibia 49.0163
lfoot -20.5868 12.3111
ltoes -13.5239
1469
root -1.44497 17.5356 -3.61707 1.75272 -10.7175 5.65991
lowerback 20.1046 2.06413 -6.01663
upperback 2.79635 1.11617 -2.87829
thorax -8.27059 0.662612 -0.00462436
lowerneck -16.9272 0.793647 -4.68784
upperneck 0.812714 1.60011 6.70101
head 2.84218 1.08735 2.93008
rclavicle -2.21645e-014 4.77083e-015
rhumerus -21.5983 -12.7111 -48.4169
rradius 84.9545
rwrist -34.2932
rhand -23.3334 7.25203
rfingers 7.12502
rthumb 3.12116 -22.7049
lclavicle -2.21645e-014 4.77083e-015
lhumerus -30.677 8.41975 52.6743
lradius 85.243
lwrist 14.1604
lhand -36.4085 10.0745
lfingers 7.12502
lthumb -9.50392 39.8401
rfemur -32.7765 3.51431 5.86778
rtibia 53.5756
rfoot -21.8225 -2.71315
rtoes -8.3657
lfemur -24.357 20.752 -18.372
ltibia 50.122
lfoot -20.8872 11.7134
ltoes -12.9309
1470
root -1.41794 17.4802 -3.66516 2.01002 -10.539 5.66389
lowerback 20.4979 2.03797 -6.07924
upperback 2.84984 1.03595 -2.87837
thorax -8.42151 0.627603 0.0428737
lowerneck -16.8909 0.785379 -4.75362
upperneck 0.535036 1.60726 6.80891
head 2.75108 1.09359 2.97175
rclavicle 2.24627e-014 4.37326e-015
rhumerus -21.2736 -12.717 -48.4104
rradius 84.9481
rwrist -34.1341
rhand -23.1689 7.38095
rfingers 7.12502
rthumb 3.27996 -22.5736
lclavicle 2.24627e-014 4.37326e-015
lhumerus -29.8749 8.41504 52.3865
lradius 85.2112
lwrist 14.2248
lhand -36.5075 10.3849
lfingers 7.12502
lthumb -9.59949 40.1462
rfemur -33.6148 3.03246 5.71732
rtibia 54.3225
rfoot -22.1535 -2.49777
rtoes -8.65623
lfemur -25.5764 21.2824 -18.6375
ltibia 51.301
lfoot -21.1653 11.3151
ltoes -13.0148
1471
root -1.39182 17.4216 -3.71302 2.26946 -10.3199 5.65502
lowerback 20.8571 1.97558 -6.07177
upperback 2.92997 0.925637 -2.90702
thorax -8.521 0.57456 0.0304547
lowerneck -16.8583 0.788711 -4.70648
upperneck 0.289896 1.613 6.79238
head 2.67172 1.09407 2.95684
rclavicle -4.47266e-015 1.98785e-014
rhumerus -20.859 -12.7227 -48.4822
rradius 84.8539
rwrist -33.9675
rhand -23.1046 7.65682
rfingers 7.12502
rthumb 3.34209 -22.2967
lclavicle -4.47266e-015 1.98785e-014
lhumerus -29.0891 8.431 52.0609
lradius 85.2009
lwrist 14.2412
lhand -36.2265 10.3768
lfingers 7.12502
lthumb -9.32832 40.1504
rfemur -34.4261 2.53192 5.58683
rtibia 55.0356
rfoot -22.5172 -2.56294
rtoes -9.40256
lfemur -26.8422 21.7211 -18.9207
ltibia 52.5494
lfoot -21.4307 11.0577
ltoes -13.0141
1472
root -1.36719 17.3546 -3.76688 2.59595 -10.0973 5.42341
lowerback 21.3187 1.90699 -5.90031
upperback 2.98308 0.843344 -2.84356
thorax -8.70538 0.533183 0.0157201
lowerneck -16.9968 0.77913 -4.72061
upperneck 0.222601 1.61059 6.80055
head 2.67219 1.09524 2.96276
rclavicle -5.76476e-015 1.51076e-014
rhumerus -20.5061 -12.6657 -48.4608
rradius 84.8765
rwrist -33.7704
rhand -23.2919 7.64495
rfingers 7.12502
rthumb 3.16124 -22.3114
lclavicle -5.76476e-015 1.51076e-014
lhumerus -28.2749 8.45743 51.787
lradius 85.1619
lwrist 14.3322
lhand -36.1197 10.3817
lfingers 7.12502
lthumb -9.22531 40.1599
rfemur -35.3316 2.05651 5.74885
rtibia 55.7484
rfoot -22.9194 -3.09548
rtoes -11.3726
lfemur -28.2144 22.164 -18.9819
ltibia 53.8236
lfoot -21.6927 10.785
ltoes -12.3927
1473
root -1.34347 17.2885 -3.81862 2.93563 -9.86725 5.13007
lowerback 21.7242 1.85228 -5.67496
upperback 3.0512 0.802773 -2.74649
thorax -8.84406 0.509473 -0.00203099
lowerneck -16.9995 0.736734 -4.88694
upperneck -0.011579 1.59105 6.94142
head 2.60111 1.09018 3.03013
rclavicle -2.06736e-014 2.98177e-014
rhumerus -20.211 -12.7535 -48.389
rradius 84.9412
rwrist -33.5854
rhand -23.1964 7.5991
rfingers 7.12502
rthumb 3.25341 -22.3558
lclavicle -2.06736e-014 2.98177e-014
lhumerus -27.3227 8.46178 51.584
lradius 84.9867
lwrist 14.3832
lhand -36.1487 10.1171
lfingers 7.12502
lthumb -9.25328 39.894
rfemur -36.1914 1.53887 5.9767
rtibia 56.4863
rfoot -23.4142 -3.40926
rtoes -13.2055
lfemur -29.5993 22.5645 -18.9962
ltibia 55.0795
lfoot -21.9402 10.6401
ltoes -11.9497
1474
root -1.31919 17.2254 -3.86578 3.16683 -9.6682 5.00843
lowerback 22.1188 1.83734 -5.54603
upperback 3.14101 0.786633 -2.73499
thorax -8.95343 0.498048 -0.0651609
lowerneck -16.9634 0.639654 -4.9494
upperneck -0.252864 1.47996 7.02807
head 2.52877 1.03675 3.05739
rclavicle 4.07509e-015 -1.59028e-014
rhumerus -19.8895 -12.9381 -48.3424
rradius 84.8631
rwrist -33.4701
rhand -23.1013 7.47747
rfingers 7.12502
rthumb 3.3453 -22.476
lclavicle 4.07509e-015 -1.59028e-014
lhumerus -26.3903 8.38276 51.3962
lradius 84.8607
lwrist 14.5274
lhand -36.2623 9.80927
lfingers 7.12502
lthumb -9.36293 39.5813
rfemur -36.9177 0.959868 5.99628
rtibia 57.2804
rfoot -24.0106 -3.29601
rtoes -14.679
lfemur -30.8207 22.927 -19.1899
ltibia 56.2717
lfoot -22.1571 10.5468
ltoes -12.0299
1475
root -1.29471 17.1612 -3.91442 3.37224 -9.43261 5.09518
lowerback 22.5572 1.81182 -5.59067
upperback 3.19634 0.702626 -2.80183
thorax -9.12244 0.460231 -0.097694
lowerneck -16.9686 0.614913 -4.77517
upperneck -0.345282 1.42345 6.89775
head 2.50626 1.00299 2.98442
rclavicle -2.98177e-015 -3.02153e-014
rhumerus -19.5727 -13.0912 -48.3533
rradius 84.7514
rwrist -33.3358
rhand -23.2029 7.5228
rfingers 7.12502
rthumb 3.24719 -22.4322
lclavicle -2.98177e-015 -3.02153e-014
lhumerus -25.6625 8.22833 51.1501
lradius 84.9063
lwrist 14.6534
lhand -36.486 9.78715
lfingers 7.12502
lthumb -9.57875 39.5494
rfemur -37.6867 0.267434 5.8074
rtibia 58.145
rfoot -24.6239 -3.14311
rtoes -15.7559
lfemur -32.0058 23.1474 -19.6027
ltibia 57.4159
lfoot -22.488 10.3305
ltoes -11.4596
1476
root -1.27171 17.0996 -3.96276 3.60907 -9.20153 5.0609
lowerback 22.9075 1.76092 -5.54889
upperback 3.29087 0.622823 -2.80044
thorax -9.20005 0.420981 -0.101555
lowerneck -17.0073 0.645987 -4.66617
upperneck -0.348697 1.45452 6.7
head 2.50991 1.01083 2.90799
rclavicle -2.24627e-014 2.46493e-014
rhumerus -19.189 -13.2439 -48.3517
rradius 84.6676
rwrist -33.1451
rhand -23.4635 7.69304
rfingers 7.12502
rthumb 2.99544 -22.2657
lclavicle -2.24627e-014 2.46493e-014
lhumerus -24.9352 8.18749 50.9247
lradius 84.9718
lwrist 14.6232
lhand -36.5505 10.0191
lfingers 7.12502
lthumb -9.64095 39.7785
rfemur -38.5024 -0.366692 5.78206
rtibia 59.0498
rfoot -25.2422 -3.31402
rtoes -16.5612
lfemur -33.1816 23.2692 -19.8558
ltibia 58.5319
lfoot -22.8102 10.223
ltoes -10.9534
